<svg id="Layer_1" data-name="Layer 1" xmlns="http://www.w3.org/2000/svg" viewBox="0 0 512 512"><title>address-book</title><g id="address-book"><path id="label" d="M256,0C114.61,0,0,114.63,0,256S114.61,512,256,512,512,397.37,512,256,397.37,0,256,0Z" fill="#84d4f0"/><g id="address-book-2" data-name="address-book"><path d="M365.13,371.1c0,9.77-6,20.58-15.79,20.58H141V120.32H349.34c9.77,0,15.79,5,15.79,14.8Z" fill="#fff"/><path d="M349.34,396.8H141a5.12,5.12,0,0,1-5.12-5.12V120.32A5.12,5.12,0,0,1,141,115.2H349.34c12.9,0,20.92,7.63,20.92,19.92v236c0,12.36-8,25.7-20.92,25.7ZM146.09,386.56H349.34c6.3,0,10.67-8.15,10.67-15.46v-236c0-4.16-1.1-9.68-10.67-9.68H146.09V386.56Z" fill="#2c4c76"/><rect x="365.13" y="149.82" width="23.6" height="35.39" fill="#fff"/><path d="M388.73,190.33h-23.6a5.12,5.12,0,0,1-5.12-5.12V149.82a5.12,5.12,0,0,1,5.12-5.12h23.6a5.12,5.12,0,0,1,5.12,5.12v35.39a5.12,5.12,0,0,1-5.12,5.12Zm-18.48-10.24h13.36V154.94H370.25v25.15Z" fill="#2c4c76"/><rect x="365.13" y="185.21" width="23.6" height="35.39" fill="#fff"/><path d="M388.73,225.72h-23.6A5.12,5.12,0,0,1,360,220.6V185.21a5.12,5.12,0,0,1,5.12-5.12h23.6a5.12,5.12,0,0,1,5.12,5.12V220.6a5.12,5.12,0,0,1-5.12,5.12Zm-18.48-10.24h13.36V190.33H370.25v25.15Z" fill="#2c4c76"/><rect x="365.13" y="220.6" width="23.6" height="35.39" fill="#fff"/><path d="M388.73,261.11h-23.6A5.12,5.12,0,0,1,360,256V220.6a5.12,5.12,0,0,1,5.12-5.12h23.6a5.12,5.12,0,0,1,5.12,5.12V256a5.12,5.12,0,0,1-5.12,5.12Zm-18.48-10.24h13.36V225.72H370.25v25.15Z" fill="#2c4c76"/><rect x="365.13" y="255.99" width="23.6" height="35.4" fill="#fff"/><path d="M388.73,296.51h-23.6a5.12,5.12,0,0,1-5.12-5.12V256a5.12,5.12,0,0,1,5.12-5.12h23.6a5.12,5.12,0,0,1,5.12,5.12v35.4a5.12,5.12,0,0,1-5.12,5.12Zm-18.48-10.24h13.36V261.11H370.25v25.16Z" fill="#2c4c76"/><rect x="365.13" y="291.39" width="23.6" height="35.39" fill="#fff"/><path d="M388.73,331.9h-23.6a5.12,5.12,0,0,1-5.12-5.12V291.39a5.12,5.12,0,0,1,5.12-5.12h23.6a5.12,5.12,0,0,1,5.12,5.12v35.39a5.12,5.12,0,0,1-5.12,5.12Zm-18.48-10.24h13.36V296.51H370.25v25.15Z" fill="#2c4c76"/><rect x="365.13" y="326.78" width="23.6" height="35.39" fill="#fc6e51"/><path d="M388.73,367.3h-23.6a5.12,5.12,0,0,1-5.12-5.12V326.78a5.12,5.12,0,0,1,5.12-5.12h23.6a5.12,5.12,0,0,1,5.12,5.12v35.39a5.12,5.12,0,0,1-5.12,5.12Zm-18.48-10.24h13.36V331.9H370.25v25.16Z" fill="#2c4c76"/><path d="M128.42,261.14a5.09,5.09,0,0,1-3.41-1.3,23.41,23.41,0,1,1,39-17.46,5.12,5.12,0,0,1-10.24,0,13.17,13.17,0,1,0-21.93,9.83,5.12,5.12,0,0,1-3.41,8.94Z" fill="#2c4c76"/><path d="M128.63,235.47l-3.38-3A23.37,23.37,0,1,1,164,214.94a5.12,5.12,0,1,1-10.24,0,13.17,13.17,0,0,0-26.34,0,12.85,12.85,0,0,0,2,6.91,23.54,23.54,0,0,1,26.49,3,5.12,5.12,0,0,1-6.76,7.7,12.81,12.81,0,0,0-17.17,0l-3.37,3Z" fill="#2c4c76"/><path d="M128.63,208l-3.37-2.94A23.37,23.37,0,1,1,164,187.52a5.12,5.12,0,0,1-10.24,0,13.17,13.17,0,1,0-26.34,0,12.8,12.8,0,0,0,2,6.9,23.58,23.58,0,0,1,26.48,2.95,5.12,5.12,0,0,1-6.73,7.71,12.88,12.88,0,0,0-17.19,0l-3.37,3Z" fill="#2c4c76"/><path d="M128.63,180.62l-3.38-3A23.37,23.37,0,1,1,164,160.08a5.12,5.12,0,1,1-10.24,0,13.17,13.17,0,0,0-26.34,0,12.76,12.76,0,0,0,2,6.92,23.56,23.56,0,0,1,26.5,3,5.12,5.12,0,0,1-6.76,7.7,12.84,12.84,0,0,0-17.17,0l-3.37,3Z" fill="#2c4c76"/><path d="M140.59,375.31A23.41,23.41,0,1,1,164,351.91a5.12,5.12,0,1,1-10.24,0,13.17,13.17,0,1,0-13.17,13.16,5.12,5.12,0,0,1,0,10.24Z" fill="#2c4c76"/><path d="M128.63,345l-3.38-3A23.37,23.37,0,1,1,164,324.48a5.12,5.12,0,1,1-10.24,0,13.17,13.17,0,0,0-26.34,0,12.86,12.86,0,0,0,2,6.91,23.52,23.52,0,0,1,26.49,3,5.12,5.12,0,0,1-6.76,7.7A12.81,12.81,0,0,0,132,342l-3.37,3Z" fill="#2c4c76"/><path d="M128.63,317.56l-3.37-2.94A23.37,23.37,0,1,1,164,297.06a5.12,5.12,0,1,1-10.24,0,13.17,13.17,0,1,0-26.34,0,12.81,12.81,0,0,0,2,6.9,23.57,23.57,0,0,1,26.48,2.95,5.12,5.12,0,1,1-6.73,7.7,12.87,12.87,0,0,0-17.19,0l-3.37,3Z" fill="#2c4c76"/><path d="M128.63,290.16l-3.38-3A23.37,23.37,0,1,1,164,269.62a5.12,5.12,0,0,1-10.24,0,13.17,13.17,0,0,0-26.34,0,12.74,12.74,0,0,0,2,6.92,23.55,23.55,0,0,1,26.5,3,5.12,5.12,0,0,1-6.76,7.69,12.84,12.84,0,0,0-17.17,0l-3.37,3Z" fill="#2c4c76"/><path d="M320,250.87a64,64,0,1,1-64-64A64,64,0,0,1,320,250.87Z" fill="#fc6e51"/><path d="M295.28,270.48c.48.84.33,4.81-1.5,9.37s-10.05,8.7-13.7,8.9-3.73,2.84-23.56-5.83-31.75-29.78-32.7-31.15-7.68-11-7.31-20.76A22.25,22.25,0,0,1,224,214.74a7.23,7.23,0,0,1,5.36-2.26c1.33,0,2.64.26,3.79.3s2.83-.56,4.34,3.46,5.1,13.91,5.55,14.92a3.69,3.69,0,0,1,0,3.48,13.54,13.54,0,0,1-2.1,3.22c-1,1.13-2.18,2.5-3.1,3.37s-2.11,2-1,4a60.7,60.7,0,0,0,10.5,14.13,54.3,54.3,0,0,0,15.55,10.4c1.93,1.07,3.11,1,4.31-.33s5.16-5.6,6.55-7.51,2.7-1.56,4.49-.83S289.65,267,291.58,268,294.82,269.63,295.28,270.48Z" fill="#fff"/></g></g></svg>